<svg width="48" height="48" viewBox="0 0 48 48" fill="none" xmlns="http://www.w3.org/2000/svg">
<path d="M37 14.651V34C37 37.86 33.86 41 30 41H29.651C28.826 43.329 26.611 45 24 45C20.686 45 18 42.314 18 39C18 35.686 20.686 33 24 33C26.611 33 28.827 34.671 29.651 37H30C31.654 37 33 35.654 33 34V26H18C14.14 26 11 22.86 11 19V14.651C8.671 13.826 7 11.611 7 9C7 5.686 9.686 3 13 3C16.314 3 19 5.686 19 9C19 11.611 17.329 13.827 15 14.651V19C15 20.654 16.346 22 18 22H33V14.651C30.671 13.826 29 11.611 29 9C29 5.686 31.686 3 35 3C38.314 3 41 5.686 41 9C41 11.611 39.329 13.827 37 14.651Z" fill="url(#paint0_linear_6187_176291)"/>
<defs>
<linearGradient id="paint0_linear_6187_176291" x1="47" y1="49" x2="2" y2="-13.5" gradientUnits="userSpaceOnUse">
<stop stop-color="#0078D4"/>
<stop offset="1" stop-color="#4BE89F"/>
</linearGradient>
</defs>
</svg>
